<mxfile host="Electron" modified="2024-07-21T18:34:44.776Z" agent="Mozilla/5.0 (X11; Linux x86_64) AppleWebKit/537.36 (KHTML, like Gecko) draw.io/24.6.4 Chrome/124.0.6367.207 Electron/30.0.6 Safari/537.36" etag="RFhLk7-oUWJCNZMDd45g" version="24.6.4" type="device" pages="2">
  <diagram name="Page-1" id="-c2MzmFytgsg6kILU01m">
    <mxGraphModel dx="1368" dy="838" grid="1" gridSize="10" guides="1" tooltips="1" connect="1" arrows="1" fold="1" page="1" pageScale="1" pageWidth="850" pageHeight="1100" math="0" shadow="0">
      <root>
        <mxCell id="0" />
        <mxCell id="1" parent="0" />
        <mxCell id="E9Z_MPhw0MVMEjjNFLQZ-1" value="" style="shape=datastore;whiteSpace=wrap;html=1;" vertex="1" parent="1">
          <mxGeometry x="110" y="70" width="60" height="70" as="geometry" />
        </mxCell>
        <mxCell id="E9Z_MPhw0MVMEjjNFLQZ-2" value="Users" style="text;strokeColor=none;fillColor=none;html=1;fontSize=24;fontStyle=1;verticalAlign=middle;align=center;" vertex="1" parent="1">
          <mxGeometry x="90" y="20" width="100" height="40" as="geometry" />
        </mxCell>
        <mxCell id="E9Z_MPhw0MVMEjjNFLQZ-3" value="" style="endArrow=none;html=1;rounded=0;" edge="1" parent="1">
          <mxGeometry width="50" height="50" relative="1" as="geometry">
            <mxPoint x="80" y="220" as="sourcePoint" />
            <mxPoint x="120" y="140" as="targetPoint" />
          </mxGeometry>
        </mxCell>
        <mxCell id="E9Z_MPhw0MVMEjjNFLQZ-4" value="" style="endArrow=none;html=1;rounded=0;entryX=0.85;entryY=0.95;entryDx=0;entryDy=0;entryPerimeter=0;" edge="1" parent="1" target="E9Z_MPhw0MVMEjjNFLQZ-1">
          <mxGeometry width="50" height="50" relative="1" as="geometry">
            <mxPoint x="200" y="210" as="sourcePoint" />
            <mxPoint x="180" y="140" as="targetPoint" />
          </mxGeometry>
        </mxCell>
        <mxCell id="E9Z_MPhw0MVMEjjNFLQZ-5" value="" style="rounded=0;whiteSpace=wrap;html=1;" vertex="1" parent="1">
          <mxGeometry x="20" y="220" width="120" height="170" as="geometry" />
        </mxCell>
      </root>
    </mxGraphModel>
  </diagram>
  <diagram id="2W_K8-AP1neso5Xstx19" name="Page-2">
    <mxGraphModel dx="1368" dy="838" grid="1" gridSize="10" guides="1" tooltips="1" connect="1" arrows="1" fold="1" page="0" pageScale="1" pageWidth="850" pageHeight="1100" math="0" shadow="0">
      <root>
        <mxCell id="0" />
        <mxCell id="1" parent="0" />
        <mxCell id="MXKxuN78daNQr9alMuEl-4" value="" style="rounded=0;whiteSpace=wrap;html=1;" vertex="1" parent="1">
          <mxGeometry x="50" y="60" width="120" height="60" as="geometry" />
        </mxCell>
        <mxCell id="MXKxuN78daNQr9alMuEl-7" value="" style="rounded=0;whiteSpace=wrap;html=1;" vertex="1" parent="1">
          <mxGeometry x="200" y="60" width="120" height="60" as="geometry" />
        </mxCell>
        <mxCell id="MXKxuN78daNQr9alMuEl-8" value="lobby/leave" style="rounded=0;whiteSpace=wrap;html=1;" vertex="1" parent="1">
          <mxGeometry x="350" y="60" width="120" height="60" as="geometry" />
        </mxCell>
        <mxCell id="MXKxuN78daNQr9alMuEl-9" value="lobby/request" style="rounded=0;whiteSpace=wrap;html=1;" vertex="1" parent="1">
          <mxGeometry x="500" y="60" width="120" height="60" as="geometry" />
        </mxCell>
        <mxCell id="MXKxuN78daNQr9alMuEl-10" value="users/request" style="text;html=1;align=center;verticalAlign=middle;whiteSpace=wrap;rounded=0;" vertex="1" parent="1">
          <mxGeometry x="80" y="75" width="60" height="30" as="geometry" />
        </mxCell>
        <mxCell id="MXKxuN78daNQr9alMuEl-14" value="lobby/connect" style="text;html=1;align=center;verticalAlign=middle;whiteSpace=wrap;rounded=0;" vertex="1" parent="1">
          <mxGeometry x="230" y="75" width="60" height="30" as="geometry" />
        </mxCell>
        <mxCell id="MXKxuN78daNQr9alMuEl-15" value="lobby/invite" style="rounded=0;whiteSpace=wrap;html=1;" vertex="1" parent="1">
          <mxGeometry x="650" y="60" width="120" height="60" as="geometry" />
        </mxCell>
        <mxCell id="MXKxuN78daNQr9alMuEl-16" value="lobby/ready" style="rounded=0;whiteSpace=wrap;html=1;" vertex="1" parent="1">
          <mxGeometry x="800" y="60" width="120" height="60" as="geometry" />
        </mxCell>
        <mxCell id="MXKxuN78daNQr9alMuEl-17" value="lobby/start" style="rounded=0;whiteSpace=wrap;html=1;" vertex="1" parent="1">
          <mxGeometry x="1120" y="60" width="120" height="60" as="geometry" />
        </mxCell>
        <mxCell id="MXKxuN78daNQr9alMuEl-18" value="" style="endArrow=classic;html=1;rounded=0;exitX=1;exitY=1;exitDx=0;exitDy=0;entryX=0.573;entryY=-0.075;entryDx=0;entryDy=0;entryPerimeter=0;" edge="1" parent="1" target="MXKxuN78daNQr9alMuEl-43">
          <mxGeometry width="50" height="50" relative="1" as="geometry">
            <mxPoint x="170" y="121" as="sourcePoint" />
            <mxPoint x="122" y="570" as="targetPoint" />
          </mxGeometry>
        </mxCell>
        <mxCell id="MXKxuN78daNQr9alMuEl-20" value="" style="endArrow=classic;html=1;rounded=0;exitX=1;exitY=1;exitDx=0;exitDy=0;entryX=0.5;entryY=0;entryDx=0;entryDy=0;" edge="1" parent="1" target="MXKxuN78daNQr9alMuEl-29">
          <mxGeometry width="50" height="50" relative="1" as="geometry">
            <mxPoint x="320" y="120" as="sourcePoint" />
            <mxPoint x="280" y="380" as="targetPoint" />
          </mxGeometry>
        </mxCell>
        <mxCell id="MXKxuN78daNQr9alMuEl-21" value="" style="endArrow=classic;html=1;rounded=0;exitX=1;exitY=1;exitDx=0;exitDy=0;entryX=0.5;entryY=0;entryDx=0;entryDy=0;" edge="1" parent="1" target="MXKxuN78daNQr9alMuEl-29">
          <mxGeometry width="50" height="50" relative="1" as="geometry">
            <mxPoint x="470" y="120" as="sourcePoint" />
            <mxPoint x="460" y="470" as="targetPoint" />
          </mxGeometry>
        </mxCell>
        <mxCell id="MXKxuN78daNQr9alMuEl-23" value="" style="endArrow=classic;html=1;rounded=0;exitX=1;exitY=1;exitDx=0;exitDy=0;entryX=0.5;entryY=0;entryDx=0;entryDy=0;" edge="1" parent="1" target="MXKxuN78daNQr9alMuEl-58">
          <mxGeometry width="50" height="50" relative="1" as="geometry">
            <mxPoint x="770" y="120" as="sourcePoint" />
            <mxPoint x="810" y="360" as="targetPoint" />
          </mxGeometry>
        </mxCell>
        <mxCell id="MXKxuN78daNQr9alMuEl-24" value="" style="endArrow=classic;html=1;rounded=0;exitX=1;exitY=1;exitDx=0;exitDy=0;entryX=0.5;entryY=0;entryDx=0;entryDy=0;" edge="1" parent="1" source="MXKxuN78daNQr9alMuEl-17" target="MXKxuN78daNQr9alMuEl-73">
          <mxGeometry width="50" height="50" relative="1" as="geometry">
            <mxPoint x="920" y="120" as="sourcePoint" />
            <mxPoint x="1140" y="290" as="targetPoint" />
          </mxGeometry>
        </mxCell>
        <mxCell id="MXKxuN78daNQr9alMuEl-25" value="LobbyRequest" style="swimlane;fontStyle=0;childLayout=stackLayout;horizontal=1;startSize=30;horizontalStack=0;resizeParent=1;resizeParentMax=0;resizeLast=0;collapsible=1;marginBottom=0;whiteSpace=wrap;html=1;" vertex="1" parent="1">
          <mxGeometry x="220" y="480" width="140" height="90" as="geometry" />
        </mxCell>
        <mxCell id="MXKxuN78daNQr9alMuEl-26" value="uid: string" style="text;strokeColor=none;fillColor=none;align=left;verticalAlign=middle;spacingLeft=4;spacingRight=4;overflow=hidden;points=[[0,0.5],[1,0.5]];portConstraint=eastwest;rotatable=0;whiteSpace=wrap;html=1;" vertex="1" parent="MXKxuN78daNQr9alMuEl-25">
          <mxGeometry y="30" width="140" height="30" as="geometry" />
        </mxCell>
        <mxCell id="MXKxuN78daNQr9alMuEl-27" value="player: LobbyPlayer" style="text;strokeColor=none;fillColor=none;align=left;verticalAlign=middle;spacingLeft=4;spacingRight=4;overflow=hidden;points=[[0,0.5],[1,0.5]];portConstraint=eastwest;rotatable=0;whiteSpace=wrap;html=1;" vertex="1" parent="MXKxuN78daNQr9alMuEl-25">
          <mxGeometry y="60" width="140" height="30" as="geometry" />
        </mxCell>
        <mxCell id="MXKxuN78daNQr9alMuEl-29" value="LobbyResponse" style="swimlane;fontStyle=0;childLayout=stackLayout;horizontal=1;startSize=30;horizontalStack=0;resizeParent=1;resizeParentMax=0;resizeLast=0;collapsible=1;marginBottom=0;whiteSpace=wrap;html=1;" vertex="1" parent="1">
          <mxGeometry x="400" y="480" width="140" height="90" as="geometry" />
        </mxCell>
        <mxCell id="MXKxuN78daNQr9alMuEl-30" value="uid: string" style="text;strokeColor=none;fillColor=none;align=left;verticalAlign=middle;spacingLeft=4;spacingRight=4;overflow=hidden;points=[[0,0.5],[1,0.5]];portConstraint=eastwest;rotatable=0;whiteSpace=wrap;html=1;" vertex="1" parent="MXKxuN78daNQr9alMuEl-29">
          <mxGeometry y="30" width="140" height="30" as="geometry" />
        </mxCell>
        <mxCell id="MXKxuN78daNQr9alMuEl-31" value="message: string" style="text;strokeColor=none;fillColor=none;align=left;verticalAlign=middle;spacingLeft=4;spacingRight=4;overflow=hidden;points=[[0,0.5],[1,0.5]];portConstraint=eastwest;rotatable=0;whiteSpace=wrap;html=1;" vertex="1" parent="MXKxuN78daNQr9alMuEl-29">
          <mxGeometry y="60" width="140" height="30" as="geometry" />
        </mxCell>
        <mxCell id="MXKxuN78daNQr9alMuEl-32" value="" style="endArrow=classic;html=1;rounded=0;exitX=1;exitY=1;exitDx=0;exitDy=0;" edge="1" parent="1">
          <mxGeometry width="50" height="50" relative="1" as="geometry">
            <mxPoint x="200" y="120" as="sourcePoint" />
            <mxPoint x="290" y="480" as="targetPoint" />
          </mxGeometry>
        </mxCell>
        <mxCell id="MXKxuN78daNQr9alMuEl-33" value="LobbyPlayer" style="swimlane;fontStyle=0;childLayout=stackLayout;horizontal=1;startSize=30;horizontalStack=0;resizeParent=1;resizeParentMax=0;resizeLast=0;collapsible=1;marginBottom=0;whiteSpace=wrap;html=1;" vertex="1" parent="1">
          <mxGeometry x="220" y="620" width="140" height="120" as="geometry" />
        </mxCell>
        <mxCell id="MXKxuN78daNQr9alMuEl-34" value="uid: string" style="text;strokeColor=none;fillColor=none;align=left;verticalAlign=middle;spacingLeft=4;spacingRight=4;overflow=hidden;points=[[0,0.5],[1,0.5]];portConstraint=eastwest;rotatable=0;whiteSpace=wrap;html=1;" vertex="1" parent="MXKxuN78daNQr9alMuEl-33">
          <mxGeometry y="30" width="140" height="30" as="geometry" />
        </mxCell>
        <mxCell id="MXKxuN78daNQr9alMuEl-35" value="name: string" style="text;strokeColor=none;fillColor=none;align=left;verticalAlign=middle;spacingLeft=4;spacingRight=4;overflow=hidden;points=[[0,0.5],[1,0.5]];portConstraint=eastwest;rotatable=0;whiteSpace=wrap;html=1;" vertex="1" parent="MXKxuN78daNQr9alMuEl-33">
          <mxGeometry y="60" width="140" height="30" as="geometry" />
        </mxCell>
        <mxCell id="MXKxuN78daNQr9alMuEl-38" value="ready: boolean" style="text;strokeColor=none;fillColor=none;align=left;verticalAlign=middle;spacingLeft=4;spacingRight=4;overflow=hidden;points=[[0,0.5],[1,0.5]];portConstraint=eastwest;rotatable=0;whiteSpace=wrap;html=1;" vertex="1" parent="MXKxuN78daNQr9alMuEl-33">
          <mxGeometry y="90" width="140" height="30" as="geometry" />
        </mxCell>
        <mxCell id="MXKxuN78daNQr9alMuEl-36" value="" style="endArrow=classic;html=1;rounded=0;exitX=0.493;exitY=0.933;exitDx=0;exitDy=0;entryX=0.5;entryY=0;entryDx=0;entryDy=0;exitPerimeter=0;" edge="1" parent="1" source="MXKxuN78daNQr9alMuEl-27">
          <mxGeometry width="50" height="50" relative="1" as="geometry">
            <mxPoint x="200" y="260" as="sourcePoint" />
            <mxPoint x="290" y="620" as="targetPoint" />
          </mxGeometry>
        </mxCell>
        <mxCell id="MXKxuN78daNQr9alMuEl-49" value="" style="edgeStyle=orthogonalEdgeStyle;rounded=0;orthogonalLoop=1;jettySize=auto;html=1;" edge="1" parent="1" source="MXKxuN78daNQr9alMuEl-39" target="MXKxuN78daNQr9alMuEl-43">
          <mxGeometry relative="1" as="geometry">
            <mxPoint x="120" y="540" as="targetPoint" />
          </mxGeometry>
        </mxCell>
        <mxCell id="MXKxuN78daNQr9alMuEl-39" value="PublicLobbyPlayer" style="swimlane;fontStyle=0;childLayout=stackLayout;horizontal=1;startSize=30;horizontalStack=0;resizeParent=1;resizeParentMax=0;resizeLast=0;collapsible=1;marginBottom=0;whiteSpace=wrap;html=1;" vertex="1" parent="1">
          <mxGeometry x="35" y="480" width="140" height="120" as="geometry" />
        </mxCell>
        <mxCell id="MXKxuN78daNQr9alMuEl-40" value="uid: string" style="text;strokeColor=none;fillColor=none;align=left;verticalAlign=middle;spacingLeft=4;spacingRight=4;overflow=hidden;points=[[0,0.5],[1,0.5]];portConstraint=eastwest;rotatable=0;whiteSpace=wrap;html=1;" vertex="1" parent="MXKxuN78daNQr9alMuEl-39">
          <mxGeometry y="30" width="140" height="30" as="geometry" />
        </mxCell>
        <mxCell id="MXKxuN78daNQr9alMuEl-41" value="name: string" style="text;strokeColor=none;fillColor=none;align=left;verticalAlign=middle;spacingLeft=4;spacingRight=4;overflow=hidden;points=[[0,0.5],[1,0.5]];portConstraint=eastwest;rotatable=0;whiteSpace=wrap;html=1;" vertex="1" parent="MXKxuN78daNQr9alMuEl-39">
          <mxGeometry y="60" width="140" height="30" as="geometry" />
        </mxCell>
        <mxCell id="MXKxuN78daNQr9alMuEl-42" value="ready: boolean" style="text;strokeColor=none;fillColor=none;align=left;verticalAlign=middle;spacingLeft=4;spacingRight=4;overflow=hidden;points=[[0,0.5],[1,0.5]];portConstraint=eastwest;rotatable=0;whiteSpace=wrap;html=1;" vertex="1" parent="MXKxuN78daNQr9alMuEl-39">
          <mxGeometry y="90" width="140" height="30" as="geometry" />
        </mxCell>
        <mxCell id="MXKxuN78daNQr9alMuEl-43" value="PublicLobbyPlayerArray" style="swimlane;" vertex="1" parent="1">
          <mxGeometry x="30" y="250" width="150" height="40" as="geometry" />
        </mxCell>
        <mxCell id="MXKxuN78daNQr9alMuEl-50" value="" style="endArrow=classic;html=1;rounded=0;exitX=1;exitY=1;exitDx=0;exitDy=0;" edge="1" parent="1">
          <mxGeometry width="50" height="50" relative="1" as="geometry">
            <mxPoint x="350" y="120" as="sourcePoint" />
            <mxPoint x="290" y="480" as="targetPoint" />
          </mxGeometry>
        </mxCell>
        <mxCell id="MXKxuN78daNQr9alMuEl-51" value="&lt;b&gt;IN&lt;/b&gt;" style="text;html=1;align=center;verticalAlign=middle;whiteSpace=wrap;rounded=0;" vertex="1" parent="1">
          <mxGeometry x="20" y="120" width="60" height="30" as="geometry" />
        </mxCell>
        <mxCell id="MXKxuN78daNQr9alMuEl-52" value="&lt;b&gt;OUT&lt;/b&gt;" style="text;html=1;align=center;verticalAlign=middle;whiteSpace=wrap;rounded=0;" vertex="1" parent="1">
          <mxGeometry x="140" y="120" width="60" height="30" as="geometry" />
        </mxCell>
        <mxCell id="MXKxuN78daNQr9alMuEl-53" value="LobbyInviteResponse" style="swimlane;fontStyle=0;childLayout=stackLayout;horizontal=1;startSize=30;horizontalStack=0;resizeParent=1;resizeParentMax=0;resizeLast=0;collapsible=1;marginBottom=0;whiteSpace=wrap;html=1;" vertex="1" parent="1">
          <mxGeometry x="810" y="480" width="190" height="150" as="geometry" />
        </mxCell>
        <mxCell id="MXKxuN78daNQr9alMuEl-54" value="uid: string" style="text;strokeColor=none;fillColor=none;align=left;verticalAlign=middle;spacingLeft=4;spacingRight=4;overflow=hidden;points=[[0,0.5],[1,0.5]];portConstraint=eastwest;rotatable=0;whiteSpace=wrap;html=1;" vertex="1" parent="MXKxuN78daNQr9alMuEl-53">
          <mxGeometry y="30" width="190" height="30" as="geometry" />
        </mxCell>
        <mxCell id="MXKxuN78daNQr9alMuEl-55" value="senderPlayerPublicUid: string" style="text;strokeColor=none;fillColor=none;align=left;verticalAlign=middle;spacingLeft=4;spacingRight=4;overflow=hidden;points=[[0,0.5],[1,0.5]];portConstraint=eastwest;rotatable=0;whiteSpace=wrap;html=1;" vertex="1" parent="MXKxuN78daNQr9alMuEl-53">
          <mxGeometry y="60" width="190" height="30" as="geometry" />
        </mxCell>
        <mxCell id="MXKxuN78daNQr9alMuEl-56" value="requestToPlayerPublicUid: string" style="text;strokeColor=none;fillColor=none;align=left;verticalAlign=middle;spacingLeft=4;spacingRight=4;overflow=hidden;points=[[0,0.5],[1,0.5]];portConstraint=eastwest;rotatable=0;whiteSpace=wrap;html=1;" vertex="1" parent="MXKxuN78daNQr9alMuEl-53">
          <mxGeometry y="90" width="190" height="30" as="geometry" />
        </mxCell>
        <mxCell id="MXKxuN78daNQr9alMuEl-57" value="result: boolean" style="text;strokeColor=none;fillColor=none;align=left;verticalAlign=middle;spacingLeft=4;spacingRight=4;overflow=hidden;points=[[0,0.5],[1,0.5]];portConstraint=eastwest;rotatable=0;whiteSpace=wrap;html=1;" vertex="1" parent="MXKxuN78daNQr9alMuEl-53">
          <mxGeometry y="120" width="190" height="30" as="geometry" />
        </mxCell>
        <mxCell id="MXKxuN78daNQr9alMuEl-58" value="LobbyInviteRequest" style="swimlane;fontStyle=0;childLayout=stackLayout;horizontal=1;startSize=30;horizontalStack=0;resizeParent=1;resizeParentMax=0;resizeLast=0;collapsible=1;marginBottom=0;whiteSpace=wrap;html=1;" vertex="1" parent="1">
          <mxGeometry x="1030" y="480" width="180" height="90" as="geometry" />
        </mxCell>
        <mxCell id="MXKxuN78daNQr9alMuEl-59" value="uid: string" style="text;strokeColor=none;fillColor=none;align=left;verticalAlign=middle;spacingLeft=4;spacingRight=4;overflow=hidden;points=[[0,0.5],[1,0.5]];portConstraint=eastwest;rotatable=0;whiteSpace=wrap;html=1;" vertex="1" parent="MXKxuN78daNQr9alMuEl-58">
          <mxGeometry y="30" width="180" height="30" as="geometry" />
        </mxCell>
        <mxCell id="MXKxuN78daNQr9alMuEl-60" value="senderPlayerPublicUid: string" style="text;strokeColor=none;fillColor=none;align=left;verticalAlign=middle;spacingLeft=4;spacingRight=4;overflow=hidden;points=[[0,0.5],[1,0.5]];portConstraint=eastwest;rotatable=0;whiteSpace=wrap;html=1;" vertex="1" parent="MXKxuN78daNQr9alMuEl-58">
          <mxGeometry y="60" width="180" height="30" as="geometry" />
        </mxCell>
        <mxCell id="MXKxuN78daNQr9alMuEl-63" value="" style="endArrow=classic;html=1;rounded=0;exitX=1;exitY=1;exitDx=0;exitDy=0;entryX=0.463;entryY=0.008;entryDx=0;entryDy=0;entryPerimeter=0;" edge="1" parent="1" target="MXKxuN78daNQr9alMuEl-64">
          <mxGeometry width="50" height="50" relative="1" as="geometry">
            <mxPoint x="500" y="120" as="sourcePoint" />
            <mxPoint x="650" y="470" as="targetPoint" />
          </mxGeometry>
        </mxCell>
        <mxCell id="MXKxuN78daNQr9alMuEl-64" value="LobbyJoinRequest" style="swimlane;fontStyle=0;childLayout=stackLayout;horizontal=1;startSize=30;horizontalStack=0;resizeParent=1;resizeParentMax=0;resizeLast=0;collapsible=1;marginBottom=0;whiteSpace=wrap;html=1;" vertex="1" parent="1">
          <mxGeometry x="580" y="480" width="200" height="120" as="geometry" />
        </mxCell>
        <mxCell id="MXKxuN78daNQr9alMuEl-65" value="uid: string" style="text;strokeColor=none;fillColor=none;align=left;verticalAlign=middle;spacingLeft=4;spacingRight=4;overflow=hidden;points=[[0,0.5],[1,0.5]];portConstraint=eastwest;rotatable=0;whiteSpace=wrap;html=1;" vertex="1" parent="MXKxuN78daNQr9alMuEl-64">
          <mxGeometry y="30" width="200" height="30" as="geometry" />
        </mxCell>
        <mxCell id="MXKxuN78daNQr9alMuEl-66" value="callerPlayerPublicUid: string" style="text;strokeColor=none;fillColor=none;align=left;verticalAlign=middle;spacingLeft=4;spacingRight=4;overflow=hidden;points=[[0,0.5],[1,0.5]];portConstraint=eastwest;rotatable=0;whiteSpace=wrap;html=1;" vertex="1" parent="MXKxuN78daNQr9alMuEl-64">
          <mxGeometry y="60" width="200" height="30" as="geometry" />
        </mxCell>
        <mxCell id="MXKxuN78daNQr9alMuEl-67" value="requestToPlayerPublicUid: string" style="text;strokeColor=none;fillColor=none;align=left;verticalAlign=middle;spacingLeft=4;spacingRight=4;overflow=hidden;points=[[0,0.5],[1,0.5]];portConstraint=eastwest;rotatable=0;whiteSpace=wrap;html=1;" vertex="1" parent="MXKxuN78daNQr9alMuEl-64">
          <mxGeometry y="90" width="200" height="30" as="geometry" />
        </mxCell>
        <mxCell id="MXKxuN78daNQr9alMuEl-69" value="" style="endArrow=classic;html=1;rounded=0;exitX=1;exitY=1;exitDx=0;exitDy=0;entryX=0.5;entryY=0;entryDx=0;entryDy=0;" edge="1" parent="1" target="MXKxuN78daNQr9alMuEl-53">
          <mxGeometry width="50" height="50" relative="1" as="geometry">
            <mxPoint x="650" y="120" as="sourcePoint" />
            <mxPoint x="940" y="480" as="targetPoint" />
          </mxGeometry>
        </mxCell>
        <mxCell id="MXKxuN78daNQr9alMuEl-70" value="" style="endArrow=none;dashed=1;html=1;dashPattern=1 3;strokeWidth=1;rounded=0;opacity=50;" edge="1" parent="1">
          <mxGeometry width="50" height="50" relative="1" as="geometry">
            <mxPoint x="780" y="130" as="sourcePoint" />
            <mxPoint x="620" y="120" as="targetPoint" />
          </mxGeometry>
        </mxCell>
        <mxCell id="MXKxuN78daNQr9alMuEl-71" value="" style="endArrow=classic;html=1;rounded=0;exitX=0;exitY=1;exitDx=0;exitDy=0;entryX=0.5;entryY=0;entryDx=0;entryDy=0;" edge="1" parent="1" source="MXKxuN78daNQr9alMuEl-17" target="MXKxuN78daNQr9alMuEl-25">
          <mxGeometry width="50" height="50" relative="1" as="geometry">
            <mxPoint x="950" y="120" as="sourcePoint" />
            <mxPoint x="920" y="400" as="targetPoint" />
          </mxGeometry>
        </mxCell>
        <mxCell id="MXKxuN78daNQr9alMuEl-72" value="" style="endArrow=classic;html=1;rounded=0;exitX=1;exitY=1;exitDx=0;exitDy=0;" edge="1" parent="1">
          <mxGeometry width="50" height="50" relative="1" as="geometry">
            <mxPoint x="800" y="120" as="sourcePoint" />
            <mxPoint x="290" y="480" as="targetPoint" />
          </mxGeometry>
        </mxCell>
        <mxCell id="MXKxuN78daNQr9alMuEl-73" value="" style="shape=ext;double=1;whiteSpace=wrap;html=1;aspect=fixed;" vertex="1" parent="1">
          <mxGeometry x="1100" y="250" width="80" height="80" as="geometry" />
        </mxCell>
        <mxCell id="MXKxuN78daNQr9alMuEl-74" value="GAME" style="text;strokeColor=none;fillColor=none;html=1;fontSize=24;fontStyle=1;verticalAlign=middle;align=center;" vertex="1" parent="1">
          <mxGeometry x="1090" y="270" width="100" height="40" as="geometry" />
        </mxCell>
        <mxCell id="MXKxuN78daNQr9alMuEl-77" value="lobby/status" style="rounded=0;whiteSpace=wrap;html=1;" vertex="1" parent="1">
          <mxGeometry x="960" y="60" width="120" height="60" as="geometry" />
        </mxCell>
        <mxCell id="MXKxuN78daNQr9alMuEl-78" value="" style="endArrow=classic;html=1;rounded=0;exitX=1;exitY=1;exitDx=0;exitDy=0;entryX=0.58;entryY=-0.15;entryDx=0;entryDy=0;entryPerimeter=0;" edge="1" parent="1" source="MXKxuN78daNQr9alMuEl-77" target="MXKxuN78daNQr9alMuEl-43">
          <mxGeometry width="50" height="50" relative="1" as="geometry">
            <mxPoint x="1220" y="120" as="sourcePoint" />
            <mxPoint x="560" y="480" as="targetPoint" />
          </mxGeometry>
        </mxCell>
        <mxCell id="MXKxuN78daNQr9alMuEl-79" value="" style="endArrow=none;dashed=1;html=1;dashPattern=1 3;strokeWidth=1;rounded=0;opacity=50;" edge="1" parent="1">
          <mxGeometry width="50" height="50" relative="1" as="geometry">
            <mxPoint x="930" y="140" as="sourcePoint" />
            <mxPoint x="920" y="120" as="targetPoint" />
          </mxGeometry>
        </mxCell>
      </root>
    </mxGraphModel>
  </diagram>
</mxfile>
